<svg width="375" height="500" viewBox="0 0 375 500" fill="none" xmlns="http://www.w3.org/2000/svg">
<rect opacity="0.100237" width="375" height="500" fill="#9EABB2"/>
<path d="M168.117 156.4H176.397V157.588H169.449V162.196H175.731V163.384H169.449V169H168.117V156.4ZM184.434 165.508H178.908L177.612 169H176.244L181.086 156.4H181.698C182.094 156.4 182.382 156.64 182.562 157.12L185.334 164.392H185.352V164.428L187.098 169H185.73L184.434 165.508ZM179.322 164.392H184.02L181.68 158.128H181.662L179.322 164.392ZM198.429 169.576L197.043 168.208C196.263 168.832 195.363 169.144 194.343 169.144H192.471C191.643 169.144 190.911 168.958 190.275 168.586C189.651 168.214 189.165 167.686 188.817 167.002C188.481 166.318 188.313 165.526 188.313 164.626V160.774C188.313 159.874 188.487 159.088 188.835 158.416C189.195 157.732 189.699 157.204 190.347 156.832C190.995 156.448 191.733 156.256 192.561 156.256H194.469C195.297 156.256 196.029 156.442 196.665 156.814C197.301 157.186 197.793 157.714 198.141 158.398C198.501 159.082 198.681 159.874 198.681 160.774V164.59C198.681 165.634 198.405 166.546 197.853 167.326L199.257 168.712L198.429 169.576ZM194.307 167.956C195.027 167.956 195.645 167.746 196.161 167.326L194.325 165.526L195.153 164.662L196.917 166.408C197.205 165.868 197.349 165.262 197.349 164.59V160.774C197.349 159.778 197.079 158.974 196.539 158.362C196.011 157.75 195.309 157.444 194.433 157.444H192.597C191.721 157.444 191.007 157.75 190.455 158.362C189.915 158.974 189.645 159.778 189.645 160.774V164.626C189.645 165.634 189.903 166.444 190.419 167.056C190.947 167.656 191.643 167.956 192.507 167.956H194.307ZM203.895 169.144C202.983 169.144 202.251 168.886 201.699 168.37C201.147 167.854 200.871 167.176 200.871 166.336H202.131C202.131 166.84 202.293 167.248 202.617 167.56C202.941 167.872 203.367 168.028 203.895 168.028H205.461C205.977 168.028 206.397 167.926 206.721 167.722C207.045 167.506 207.207 167.23 207.207 166.894V166.282C207.207 166.054 207.117 165.856 206.937 165.688C206.757 165.508 206.523 165.388 206.235 165.328L203.121 164.788C202.497 164.68 201.993 164.446 201.609 164.086C201.237 163.714 201.051 163.282 201.051 162.79V162.196C201.051 161.5 201.315 160.942 201.843 160.522C202.371 160.09 203.067 159.874 203.931 159.874H205.479C206.319 159.874 206.997 160.114 207.513 160.594C208.029 161.062 208.287 161.686 208.287 162.466H207.027C207.015 162.022 206.865 161.668 206.577 161.404C206.301 161.128 205.935 160.99 205.479 160.99H203.931C203.451 160.99 203.067 161.104 202.779 161.332C202.491 161.548 202.347 161.836 202.347 162.196V162.718C202.347 162.946 202.443 163.15 202.635 163.33C202.839 163.51 203.097 163.624 203.409 163.672L206.505 164.212C207.105 164.32 207.585 164.554 207.945 164.914C208.317 165.274 208.503 165.706 208.503 166.21V166.93C208.503 167.59 208.221 168.124 207.657 168.532C207.105 168.94 206.373 169.144 205.461 169.144H203.895Z" fill="#4C545C"/>
<path d="M146.53 219.144C145.726 219.144 145.012 218.952 144.388 218.568C143.776 218.184 143.296 217.65 142.948 216.966C142.612 216.27 142.444 215.472 142.444 214.572V210.828C142.444 209.928 142.612 209.13 142.948 208.434C143.296 207.738 143.782 207.204 144.406 206.832C145.042 206.448 145.774 206.256 146.602 206.256H148.51C149.29 206.256 149.974 206.424 150.562 206.76C151.162 207.096 151.624 207.57 151.948 208.182C152.284 208.794 152.452 209.496 152.452 210.288H151.156C151.156 209.436 150.91 208.752 150.418 208.236C149.938 207.708 149.302 207.444 148.51 207.444H146.602C145.75 207.444 145.066 207.756 144.55 208.38C144.034 208.992 143.776 209.808 143.776 210.828V214.572C143.776 215.592 144.028 216.414 144.532 217.038C145.036 217.65 145.702 217.956 146.53 217.956H148.474C149.29 217.956 149.944 217.668 150.436 217.092C150.94 216.516 151.192 215.76 151.192 214.824H152.488C152.488 215.676 152.32 216.432 151.984 217.092C151.648 217.74 151.174 218.244 150.562 218.604C149.962 218.964 149.266 219.144 148.474 219.144H146.53ZM157.738 219.144C156.73 219.144 155.92 218.832 155.308 218.208C154.696 217.584 154.39 216.762 154.39 215.742V213.276C154.39 212.256 154.696 211.434 155.308 210.81C155.932 210.186 156.754 209.874 157.774 209.874H159.25C160.27 209.874 161.086 210.186 161.698 210.81C162.322 211.434 162.634 212.256 162.634 213.276V215.742C162.634 216.762 162.322 217.584 161.698 218.208C161.074 218.832 160.246 219.144 159.214 219.144H157.738ZM159.214 217.992C159.862 217.992 160.378 217.788 160.762 217.38C161.146 216.96 161.338 216.414 161.338 215.742V213.276C161.338 212.604 161.146 212.064 160.762 211.656C160.378 211.236 159.874 211.026 159.25 211.026H157.774C157.15 211.026 156.646 211.236 156.262 211.656C155.878 212.064 155.686 212.604 155.686 213.276V215.742C155.686 216.426 155.872 216.972 156.244 217.38C156.616 217.788 157.114 217.992 157.738 217.992H159.214ZM165.151 210.018H166.411V211.35C166.687 210.918 167.047 210.564 167.491 210.288C167.935 210.012 168.379 209.874 168.823 209.874H170.047C170.875 209.874 171.541 210.156 172.045 210.72C172.561 211.284 172.819 212.022 172.819 212.934V219H171.523V212.898C171.523 212.346 171.385 211.896 171.109 211.548C170.833 211.2 170.467 211.026 170.011 211.026H168.859C168.295 211.026 167.779 211.248 167.311 211.692C166.855 212.136 166.567 212.706 166.447 213.402V219H165.151V210.018ZM179.114 219C178.166 219 177.482 218.796 177.062 218.388C176.654 217.98 176.45 217.308 176.45 216.372V211.17H174.866V210.018H176.45V207.3H177.746V210.018H180.086V211.17H177.746V216.372C177.746 216.9 177.848 217.278 178.052 217.506C178.268 217.734 178.622 217.848 179.114 217.848H180.086V219H179.114ZM184.976 219.144C184.1 219.144 183.398 218.916 182.87 218.46C182.354 218.004 182.096 217.392 182.096 216.624V216.048C182.096 215.292 182.366 214.686 182.906 214.23C183.446 213.774 184.16 213.546 185.048 213.546H186.2C186.596 213.546 187.004 213.606 187.424 213.726C187.844 213.846 188.204 214.008 188.504 214.212V212.718C188.504 212.214 188.348 211.806 188.036 211.494C187.724 211.17 187.31 211.008 186.794 211.008H185.354C184.838 211.008 184.424 211.128 184.112 211.368C183.8 211.608 183.644 211.926 183.644 212.322H182.348C182.348 211.59 182.624 211.002 183.176 210.558C183.728 210.102 184.454 209.874 185.354 209.874H186.794C187.682 209.874 188.396 210.138 188.936 210.666C189.488 211.182 189.764 211.866 189.764 212.718V219H188.54V217.74C188.264 218.172 187.898 218.514 187.442 218.766C186.998 219.018 186.536 219.144 186.056 219.144H184.976ZM186.092 218.01C186.656 218.01 187.16 217.836 187.604 217.488C188.048 217.14 188.348 216.678 188.504 216.102V215.436C188.264 215.208 187.928 215.028 187.496 214.896C187.076 214.752 186.644 214.68 186.2 214.68H185.048C184.556 214.68 184.154 214.806 183.842 215.058C183.542 215.31 183.392 215.64 183.392 216.048V216.624C183.392 217.044 183.536 217.38 183.824 217.632C184.112 217.884 184.496 218.01 184.976 218.01H186.092ZM195.436 219.144C194.452 219.144 193.66 218.85 193.06 218.262C192.46 217.662 192.16 216.87 192.16 215.886V213.312C192.16 212.28 192.46 211.452 193.06 210.828C193.66 210.192 194.446 209.874 195.418 209.874H196.894C197.818 209.874 198.562 210.132 199.126 210.648C199.69 211.164 199.972 211.842 199.972 212.682H198.712C198.712 212.19 198.544 211.794 198.208 211.494C197.884 211.182 197.446 211.026 196.894 211.026H195.418C194.83 211.026 194.356 211.236 193.996 211.656C193.636 212.076 193.456 212.628 193.456 213.312V215.886C193.456 216.522 193.636 217.032 193.996 217.416C194.368 217.8 194.848 217.992 195.436 217.992H196.912C197.476 217.992 197.926 217.794 198.262 217.398C198.61 217.002 198.784 216.474 198.784 215.814H200.044C200.044 216.81 199.756 217.614 199.18 218.226C198.604 218.838 197.848 219.144 196.912 219.144H195.436ZM205.764 219C204.816 219 204.132 218.796 203.712 218.388C203.304 217.98 203.1 217.308 203.1 216.372V211.17H201.516V210.018H203.1V207.3H204.396V210.018H206.736V211.17H204.396V216.372C204.396 216.9 204.498 217.278 204.702 217.506C204.918 217.734 205.272 217.848 205.764 217.848H206.736V219H205.764ZM217.942 219.144C217.174 219.144 216.496 218.976 215.908 218.64C215.32 218.292 214.864 217.806 214.54 217.182C214.216 216.546 214.054 215.82 214.054 215.004V206.4H215.386V215.04C215.386 215.916 215.62 216.624 216.088 217.164C216.556 217.692 217.174 217.956 217.942 217.956H219.886C220.654 217.956 221.272 217.692 221.74 217.164C222.208 216.624 222.442 215.916 222.442 215.04V206.4H223.774V215.004C223.774 215.82 223.612 216.546 223.288 217.182C222.964 217.806 222.508 218.292 221.92 218.64C221.332 218.976 220.654 219.144 219.886 219.144H217.942ZM229.208 219.144C228.296 219.144 227.564 218.886 227.012 218.37C226.46 217.854 226.184 217.176 226.184 216.336H227.444C227.444 216.84 227.606 217.248 227.93 217.56C228.254 217.872 228.68 218.028 229.208 218.028H230.774C231.29 218.028 231.71 217.926 232.034 217.722C232.358 217.506 232.52 217.23 232.52 216.894V216.282C232.52 216.054 232.43 215.856 232.25 215.688C232.07 215.508 231.836 215.388 231.548 215.328L228.434 214.788C227.81 214.68 227.306 214.446 226.922 214.086C226.55 213.714 226.364 213.282 226.364 212.79V212.196C226.364 211.5 226.628 210.942 227.156 210.522C227.684 210.09 228.38 209.874 229.244 209.874H230.792C231.632 209.874 232.31 210.114 232.826 210.594C233.342 211.062 233.6 211.686 233.6 212.466H232.34C232.328 212.022 232.178 211.668 231.89 211.404C231.614 211.128 231.248 210.99 230.792 210.99H229.244C228.764 210.99 228.38 211.104 228.092 211.332C227.804 211.548 227.66 211.836 227.66 212.196V212.718C227.66 212.946 227.756 213.15 227.948 213.33C228.152 213.51 228.41 213.624 228.722 213.672L231.818 214.212C232.418 214.32 232.898 214.554 233.258 214.914C233.63 215.274 233.816 215.706 233.816 216.21V216.93C233.816 217.59 233.534 218.124 232.97 218.532C232.418 218.94 231.686 219.144 230.774 219.144H229.208Z" fill="#4C545C"/>
<path d="M130.396 256.4H136.498C137.434 256.4 138.184 256.664 138.748 257.192C139.324 257.72 139.612 258.416 139.612 259.28V261.134C139.612 262.058 139.306 262.808 138.694 263.384C138.082 263.948 137.278 264.23 136.282 264.23H131.728V269H130.396V256.4ZM136.246 263.042C136.858 263.042 137.35 262.868 137.722 262.52C138.094 262.16 138.28 261.686 138.28 261.098V259.244C138.28 258.752 138.112 258.356 137.776 258.056C137.452 257.744 137.014 257.588 136.462 257.588H131.728V263.042H136.246ZM141.692 260.018H142.952V261.404C143.192 260.984 143.552 260.642 144.032 260.378C144.524 260.114 145.034 259.982 145.562 259.982H146.354V261.152H145.562C144.794 261.152 144.17 261.398 143.69 261.89C143.222 262.37 142.988 263.012 142.988 263.816V269H141.692V260.018ZM149.197 258.668C148.909 258.668 148.675 258.578 148.495 258.398C148.315 258.218 148.225 257.984 148.225 257.696C148.225 257.408 148.315 257.174 148.495 256.994C148.675 256.814 148.909 256.724 149.197 256.724C149.485 256.724 149.719 256.814 149.899 256.994C150.079 257.174 150.169 257.408 150.169 257.696C150.169 257.984 150.079 258.218 149.899 258.398C149.719 258.578 149.485 258.668 149.197 258.668ZM148.549 260.018H149.845V269H148.549V260.018ZM156.15 269C155.646 269 155.28 268.694 155.052 268.082L151.956 260.018H153.324L156.096 267.578H156.114L158.886 260.018H160.254L156.762 269H156.15ZM164.324 269.144C163.448 269.144 162.746 268.916 162.218 268.46C161.702 268.004 161.444 267.392 161.444 266.624V266.048C161.444 265.292 161.714 264.686 162.254 264.23C162.794 263.774 163.508 263.546 164.396 263.546H165.548C165.944 263.546 166.352 263.606 166.772 263.726C167.192 263.846 167.552 264.008 167.852 264.212V262.718C167.852 262.214 167.696 261.806 167.384 261.494C167.072 261.17 166.658 261.008 166.142 261.008H164.702C164.186 261.008 163.772 261.128 163.46 261.368C163.148 261.608 162.992 261.926 162.992 262.322H161.696C161.696 261.59 161.972 261.002 162.524 260.558C163.076 260.102 163.802 259.874 164.702 259.874H166.142C167.03 259.874 167.744 260.138 168.284 260.666C168.836 261.182 169.112 261.866 169.112 262.718V269H167.888V267.74C167.612 268.172 167.246 268.514 166.79 268.766C166.346 269.018 165.884 269.144 165.404 269.144H164.324ZM165.44 268.01C166.004 268.01 166.508 267.836 166.952 267.488C167.396 267.14 167.696 266.678 167.852 266.102V265.436C167.612 265.208 167.276 265.028 166.844 264.896C166.424 264.752 165.992 264.68 165.548 264.68H164.396C163.904 264.68 163.502 264.806 163.19 265.058C162.89 265.31 162.74 265.64 162.74 266.048V266.624C162.74 267.044 162.884 267.38 163.172 267.632C163.46 267.884 163.844 268.01 164.324 268.01H165.44ZM174.785 269.144C173.801 269.144 173.009 268.85 172.409 268.262C171.809 267.662 171.509 266.87 171.509 265.886V263.312C171.509 262.28 171.809 261.452 172.409 260.828C173.009 260.192 173.795 259.874 174.767 259.874H176.243C177.167 259.874 177.911 260.132 178.475 260.648C179.039 261.164 179.321 261.842 179.321 262.682H178.061C178.061 262.19 177.893 261.794 177.557 261.494C177.233 261.182 176.795 261.026 176.243 261.026H174.767C174.179 261.026 173.705 261.236 173.345 261.656C172.985 262.076 172.805 262.628 172.805 263.312V265.886C172.805 266.522 172.985 267.032 173.345 267.416C173.717 267.8 174.197 267.992 174.785 267.992H176.261C176.825 267.992 177.275 267.794 177.611 267.398C177.959 267.002 178.133 266.474 178.133 265.814H179.393C179.393 266.81 179.105 267.614 178.529 268.226C177.953 268.838 177.197 269.144 176.261 269.144H174.785ZM184.552 272.654C183.76 272.654 183.106 272.438 182.59 272.006C182.074 271.586 181.786 271.028 181.726 270.332H183.022C183.07 270.692 183.232 270.98 183.508 271.196C183.796 271.424 184.144 271.538 184.552 271.538H185.956C186.58 271.538 187.06 271.328 187.396 270.908C187.744 270.5 187.918 269.924 187.918 269.18V267.524C187.63 267.956 187.264 268.31 186.82 268.586C186.388 268.862 185.956 269 185.524 269H184.372C183.532 269 182.848 268.718 182.32 268.154C181.804 267.59 181.546 266.852 181.546 265.94V260.018H182.842V265.976C182.842 266.54 182.98 266.996 183.256 267.344C183.544 267.68 183.916 267.848 184.372 267.848H185.488C186.04 267.848 186.55 267.626 187.018 267.182C187.486 266.738 187.786 266.18 187.918 265.508V260.018H189.214V269.18C189.214 270.272 188.926 271.124 188.35 271.736C187.774 272.348 186.976 272.654 185.956 272.654H184.552ZM196.973 256.4H203.075C204.011 256.4 204.761 256.664 205.325 257.192C205.901 257.72 206.189 258.416 206.189 259.28V261.134C206.189 262.058 205.883 262.808 205.271 263.384C204.659 263.948 203.855 264.23 202.859 264.23H198.305V269H196.973V256.4ZM202.823 263.042C203.435 263.042 203.927 262.868 204.299 262.52C204.671 262.16 204.857 261.686 204.857 261.098V259.244C204.857 258.752 204.689 258.356 204.353 258.056C204.029 257.744 203.591 257.588 203.039 257.588H198.305V263.042H202.823ZM211.151 269.144C210.143 269.144 209.333 268.832 208.721 268.208C208.109 267.584 207.803 266.762 207.803 265.742V263.276C207.803 262.256 208.109 261.434 208.721 260.81C209.345 260.186 210.167 259.874 211.187 259.874H212.663C213.683 259.874 214.499 260.186 215.111 260.81C215.735 261.434 216.047 262.256 216.047 263.276V265.742C216.047 266.762 215.735 267.584 215.111 268.208C214.487 268.832 213.659 269.144 212.627 269.144H211.151ZM212.627 267.992C213.275 267.992 213.791 267.788 214.175 267.38C214.559 266.96 214.751 266.414 214.751 265.742V263.276C214.751 262.604 214.559 262.064 214.175 261.656C213.791 261.236 213.287 261.026 212.663 261.026H211.187C210.563 261.026 210.059 261.236 209.675 261.656C209.291 262.064 209.099 262.604 209.099 263.276V265.742C209.099 266.426 209.285 266.972 209.657 267.38C210.029 267.788 210.527 267.992 211.151 267.992H212.627ZM221.047 269C220.159 269 219.523 268.814 219.139 268.442C218.755 268.058 218.563 267.428 218.563 266.552V256.4H219.859V266.552C219.859 267.008 219.949 267.338 220.129 267.542C220.321 267.746 220.627 267.848 221.047 267.848H221.659V269H221.047ZM224.487 258.668C224.199 258.668 223.965 258.578 223.785 258.398C223.605 258.218 223.515 257.984 223.515 257.696C223.515 257.408 223.605 257.174 223.785 256.994C223.965 256.814 224.199 256.724 224.487 256.724C224.775 256.724 225.009 256.814 225.189 256.994C225.369 257.174 225.459 257.408 225.459 257.696C225.459 257.984 225.369 258.218 225.189 258.398C225.009 258.578 224.775 258.668 224.487 258.668ZM223.839 260.018H225.135V269H223.839V260.018ZM231.241 269.144C230.257 269.144 229.465 268.85 228.865 268.262C228.265 267.662 227.965 266.87 227.965 265.886V263.312C227.965 262.28 228.265 261.452 228.865 260.828C229.465 260.192 230.251 259.874 231.223 259.874H232.699C233.623 259.874 234.367 260.132 234.931 260.648C235.495 261.164 235.777 261.842 235.777 262.682H234.517C234.517 262.19 234.349 261.794 234.013 261.494C233.689 261.182 233.251 261.026 232.699 261.026H231.223C230.635 261.026 230.161 261.236 229.801 261.656C229.441 262.076 229.261 262.628 229.261 263.312V265.886C229.261 266.522 229.441 267.032 229.801 267.416C230.173 267.8 230.653 267.992 231.241 267.992H232.717C233.281 267.992 233.731 267.794 234.067 267.398C234.415 267.002 234.589 266.474 234.589 265.814H235.849C235.849 266.81 235.561 267.614 234.985 268.226C234.409 268.838 233.653 269.144 232.717 269.144H231.241ZM241.009 272.654C240.217 272.654 239.563 272.438 239.047 272.006C238.531 271.586 238.243 271.028 238.183 270.332H239.479C239.527 270.692 239.689 270.98 239.965 271.196C240.253 271.424 240.601 271.538 241.009 271.538H242.413C243.037 271.538 243.517 271.328 243.853 270.908C244.201 270.5 244.375 269.924 244.375 269.18V267.524C244.087 267.956 243.721 268.31 243.277 268.586C242.845 268.862 242.413 269 241.981 269H240.829C239.989 269 239.305 268.718 238.777 268.154C238.261 267.59 238.003 266.852 238.003 265.94V260.018H239.299V265.976C239.299 266.54 239.437 266.996 239.713 267.344C240.001 267.68 240.373 267.848 240.829 267.848H241.945C242.497 267.848 243.007 267.626 243.475 267.182C243.943 266.738 244.243 266.18 244.375 265.508V260.018H245.671V269.18C245.671 270.272 245.383 271.124 244.807 271.736C244.231 272.348 243.433 272.654 242.413 272.654H241.009Z" fill="#4C545C"/>
<path d="M152.127 306.4H158.229C159.165 306.4 159.915 306.664 160.479 307.192C161.055 307.72 161.343 308.416 161.343 309.28V311.134C161.343 312.058 161.037 312.808 160.425 313.384C159.813 313.948 159.009 314.23 158.013 314.23H153.459V319H152.127V306.4ZM157.977 313.042C158.589 313.042 159.081 312.868 159.453 312.52C159.825 312.16 160.011 311.686 160.011 311.098V309.244C160.011 308.752 159.843 308.356 159.507 308.056C159.183 307.744 158.745 307.588 158.193 307.588H153.459V313.042H157.977ZM163.422 310.018H164.682V311.404C164.922 310.984 165.282 310.642 165.762 310.378C166.254 310.114 166.764 309.982 167.292 309.982H168.084V311.152H167.292C166.524 311.152 165.9 311.398 165.42 311.89C164.952 312.37 164.718 313.012 164.718 313.816V319H163.422V310.018ZM172.662 319.144C171.654 319.144 170.844 318.85 170.232 318.262C169.62 317.662 169.314 316.87 169.314 315.886V313.312C169.314 312.28 169.62 311.452 170.232 310.828C170.844 310.192 171.654 309.874 172.662 309.874H174.138C175.098 309.874 175.872 310.18 176.46 310.792C177.048 311.404 177.342 312.214 177.342 313.222V314.806H170.61V315.886C170.61 316.51 170.796 317.02 171.168 317.416C171.552 317.8 172.05 317.992 172.662 317.992H174.03C174.63 317.992 175.116 317.83 175.488 317.506C175.86 317.17 176.046 316.726 176.046 316.174H177.306C177.306 317.062 177.006 317.782 176.406 318.334C175.806 318.874 175.014 319.144 174.03 319.144H172.662ZM176.046 313.69V313.222C176.046 312.562 175.872 312.034 175.524 311.638C175.176 311.23 174.714 311.026 174.138 311.026H172.662C172.05 311.026 171.552 311.236 171.168 311.656C170.796 312.076 170.61 312.628 170.61 313.312V313.69H176.046ZM182.297 319.144C181.385 319.144 180.653 318.886 180.101 318.37C179.549 317.854 179.273 317.176 179.273 316.336H180.533C180.533 316.84 180.695 317.248 181.019 317.56C181.343 317.872 181.769 318.028 182.297 318.028H183.863C184.379 318.028 184.799 317.926 185.123 317.722C185.447 317.506 185.609 317.23 185.609 316.894V316.282C185.609 316.054 185.519 315.856 185.339 315.688C185.159 315.508 184.925 315.388 184.637 315.328L181.523 314.788C180.899 314.68 180.395 314.446 180.011 314.086C179.639 313.714 179.453 313.282 179.453 312.79V312.196C179.453 311.5 179.717 310.942 180.245 310.522C180.773 310.09 181.469 309.874 182.333 309.874H183.881C184.721 309.874 185.399 310.114 185.915 310.594C186.431 311.062 186.689 311.686 186.689 312.466H185.429C185.417 312.022 185.267 311.668 184.979 311.404C184.703 311.128 184.337 310.99 183.881 310.99H182.333C181.853 310.99 181.469 311.104 181.181 311.332C180.893 311.548 180.749 311.836 180.749 312.196V312.718C180.749 312.946 180.845 313.15 181.037 313.33C181.241 313.51 181.499 313.624 181.811 313.672L184.907 314.212C185.507 314.32 185.987 314.554 186.347 314.914C186.719 315.274 186.905 315.706 186.905 316.21V316.93C186.905 317.59 186.623 318.124 186.059 318.532C185.507 318.94 184.775 319.144 183.863 319.144H182.297ZM191.783 319.144C190.871 319.144 190.139 318.886 189.587 318.37C189.035 317.854 188.759 317.176 188.759 316.336H190.019C190.019 316.84 190.181 317.248 190.505 317.56C190.829 317.872 191.255 318.028 191.783 318.028H193.349C193.865 318.028 194.285 317.926 194.609 317.722C194.933 317.506 195.095 317.23 195.095 316.894V316.282C195.095 316.054 195.005 315.856 194.825 315.688C194.645 315.508 194.411 315.388 194.123 315.328L191.009 314.788C190.385 314.68 189.881 314.446 189.497 314.086C189.125 313.714 188.939 313.282 188.939 312.79V312.196C188.939 311.5 189.203 310.942 189.731 310.522C190.259 310.09 190.955 309.874 191.819 309.874H193.367C194.207 309.874 194.885 310.114 195.401 310.594C195.917 311.062 196.175 311.686 196.175 312.466H194.915C194.903 312.022 194.753 311.668 194.465 311.404C194.189 311.128 193.823 310.99 193.367 310.99H191.819C191.339 310.99 190.955 311.104 190.667 311.332C190.379 311.548 190.235 311.836 190.235 312.196V312.718C190.235 312.946 190.331 313.15 190.523 313.33C190.727 313.51 190.985 313.624 191.297 313.672L194.393 314.212C194.993 314.32 195.473 314.554 195.833 314.914C196.205 315.274 196.391 315.706 196.391 316.21V316.93C196.391 317.59 196.109 318.124 195.545 318.532C194.993 318.94 194.261 319.144 193.349 319.144H191.783ZM211.373 319L206.513 312.97L204.929 314.644V319H203.597V306.4H204.929V312.988L211.049 306.4H212.705L207.431 311.998L213.029 319H211.373ZM215.97 308.668C215.682 308.668 215.448 308.578 215.268 308.398C215.088 308.218 214.998 307.984 214.998 307.696C214.998 307.408 215.088 307.174 215.268 306.994C215.448 306.814 215.682 306.724 215.97 306.724C216.258 306.724 216.492 306.814 216.672 306.994C216.852 307.174 216.942 307.408 216.942 307.696C216.942 307.984 216.852 308.218 216.672 308.398C216.492 308.578 216.258 308.668 215.97 308.668ZM215.322 310.018H216.618V319H215.322V310.018ZM223.336 319C222.388 319 221.704 318.796 221.284 318.388C220.876 317.98 220.672 317.308 220.672 316.372V311.17H219.088V310.018H220.672V307.3H221.968V310.018H224.308V311.17H221.968V316.372C221.968 316.9 222.07 317.278 222.274 317.506C222.49 317.734 222.844 317.848 223.336 317.848H224.308V319H223.336Z" fill="#4C545C"/>
<path d="M137.526 356.4H138.858V369H137.526V356.4ZM141.979 360.018H143.239V361.35C143.515 360.918 143.875 360.564 144.319 360.288C144.763 360.012 145.207 359.874 145.651 359.874H146.875C147.703 359.874 148.369 360.156 148.873 360.72C149.389 361.284 149.647 362.022 149.647 362.934V369H148.351V362.898C148.351 362.346 148.213 361.896 147.937 361.548C147.661 361.2 147.295 361.026 146.839 361.026H145.687C145.123 361.026 144.607 361.248 144.139 361.692C143.683 362.136 143.395 362.706 143.275 363.402V369H141.979V360.018ZM154.971 369.144C154.059 369.144 153.327 368.886 152.775 368.37C152.223 367.854 151.947 367.176 151.947 366.336H153.207C153.207 366.84 153.369 367.248 153.693 367.56C154.017 367.872 154.443 368.028 154.971 368.028H156.537C157.053 368.028 157.473 367.926 157.797 367.722C158.121 367.506 158.283 367.23 158.283 366.894V366.282C158.283 366.054 158.193 365.856 158.013 365.688C157.833 365.508 157.599 365.388 157.311 365.328L154.197 364.788C153.573 364.68 153.069 364.446 152.685 364.086C152.313 363.714 152.127 363.282 152.127 362.79V362.196C152.127 361.5 152.391 360.942 152.919 360.522C153.447 360.09 154.143 359.874 155.007 359.874H156.555C157.395 359.874 158.073 360.114 158.589 360.594C159.105 361.062 159.363 361.686 159.363 362.466H158.103C158.091 362.022 157.941 361.668 157.653 361.404C157.377 361.128 157.011 360.99 156.555 360.99H155.007C154.527 360.99 154.143 361.104 153.855 361.332C153.567 361.548 153.423 361.836 153.423 362.196V362.718C153.423 362.946 153.519 363.15 153.711 363.33C153.915 363.51 154.173 363.624 154.485 363.672L157.581 364.212C158.181 364.32 158.661 364.554 159.021 364.914C159.393 365.274 159.579 365.706 159.579 366.21V366.93C159.579 367.59 159.297 368.124 158.733 368.532C158.181 368.94 157.449 369.144 156.537 369.144H154.971ZM165.324 369C164.376 369 163.692 368.796 163.272 368.388C162.864 367.98 162.66 367.308 162.66 366.372V361.17H161.076V360.018H162.66V357.3H163.956V360.018H166.296V361.17H163.956V366.372C163.956 366.9 164.058 367.278 164.262 367.506C164.478 367.734 164.832 367.848 165.324 367.848H166.296V369H165.324ZM171.185 369.144C170.309 369.144 169.607 368.916 169.079 368.46C168.563 368.004 168.305 367.392 168.305 366.624V366.048C168.305 365.292 168.575 364.686 169.115 364.23C169.655 363.774 170.369 363.546 171.257 363.546H172.409C172.805 363.546 173.213 363.606 173.633 363.726C174.053 363.846 174.413 364.008 174.713 364.212V362.718C174.713 362.214 174.557 361.806 174.245 361.494C173.933 361.17 173.519 361.008 173.003 361.008H171.563C171.047 361.008 170.633 361.128 170.321 361.368C170.009 361.608 169.853 361.926 169.853 362.322H168.557C168.557 361.59 168.833 361.002 169.385 360.558C169.937 360.102 170.663 359.874 171.563 359.874H173.003C173.891 359.874 174.605 360.138 175.145 360.666C175.697 361.182 175.973 361.866 175.973 362.718V369H174.749V367.74C174.473 368.172 174.107 368.514 173.651 368.766C173.207 369.018 172.745 369.144 172.265 369.144H171.185ZM172.301 368.01C172.865 368.01 173.369 367.836 173.813 367.488C174.257 367.14 174.557 366.678 174.713 366.102V365.436C174.473 365.208 174.137 365.028 173.705 364.896C173.285 364.752 172.853 364.68 172.409 364.68H171.257C170.765 364.68 170.363 364.806 170.051 365.058C169.751 365.31 169.601 365.64 169.601 366.048V366.624C169.601 367.044 169.745 367.38 170.033 367.632C170.321 367.884 170.705 368.01 171.185 368.01H172.301ZM181.214 369C180.326 369 179.69 368.814 179.306 368.442C178.922 368.058 178.73 367.428 178.73 366.552V356.4H180.026V366.552C180.026 367.008 180.116 367.338 180.296 367.542C180.488 367.746 180.794 367.848 181.214 367.848H181.826V369H181.214ZM186.06 369C185.172 369 184.536 368.814 184.152 368.442C183.768 368.058 183.576 367.428 183.576 366.552V356.4H184.872V366.552C184.872 367.008 184.962 367.338 185.142 367.542C185.334 367.746 185.64 367.848 186.06 367.848H186.672V369H186.06ZM197.172 369.144C196.344 369.144 195.618 368.958 194.994 368.586C194.382 368.202 193.902 367.662 193.554 366.966C193.218 366.27 193.05 365.472 193.05 364.572V360.828C193.05 359.928 193.224 359.136 193.572 358.452C193.932 357.756 194.43 357.216 195.066 356.832C195.702 356.448 196.434 356.256 197.262 356.256H199.17C199.962 356.256 200.658 356.424 201.258 356.76C201.87 357.096 202.344 357.57 202.68 358.182C203.016 358.794 203.184 359.496 203.184 360.288H201.888C201.888 359.436 201.636 358.752 201.132 358.236C200.64 357.708 199.986 357.444 199.17 357.444H197.262C196.398 357.444 195.702 357.756 195.174 358.38C194.646 358.992 194.382 359.808 194.382 360.828V364.572C194.382 365.592 194.634 366.414 195.138 367.038C195.654 367.65 196.332 367.956 197.172 367.956H199.116C199.968 367.956 200.658 367.662 201.186 367.074C201.714 366.486 201.978 365.712 201.978 364.752V363.672H198.486V362.502H203.274V364.752C203.274 365.616 203.1 366.384 202.752 367.056C202.416 367.716 201.93 368.232 201.294 368.604C200.67 368.964 199.944 369.144 199.116 369.144H197.172ZM208.46 369.144C207.632 369.144 206.96 368.862 206.444 368.298C205.928 367.734 205.67 366.996 205.67 366.084V360.018H206.966V366.12C206.966 366.684 207.104 367.14 207.38 367.488C207.656 367.824 208.016 367.992 208.46 367.992H209.576C210.128 367.992 210.638 367.77 211.106 367.326C211.574 366.882 211.874 366.324 212.006 365.652V360.018H213.302V369H212.042V367.632C211.766 368.064 211.4 368.424 210.944 368.712C210.488 369 210.044 369.144 209.612 369.144H208.46ZM217.151 358.668C216.863 358.668 216.629 358.578 216.449 358.398C216.269 358.218 216.179 357.984 216.179 357.696C216.179 357.408 216.269 357.174 216.449 356.994C216.629 356.814 216.863 356.724 217.151 356.724C217.439 356.724 217.673 356.814 217.853 356.994C218.033 357.174 218.123 357.408 218.123 357.696C218.123 357.984 218.033 358.218 217.853 358.398C217.673 358.578 217.439 358.668 217.151 358.668ZM216.503 360.018H217.799V369H216.503V360.018ZM223.779 369.144C223.167 369.144 222.621 369 222.141 368.712C221.661 368.424 221.289 368.022 221.025 367.506C220.761 366.99 220.629 366.39 220.629 365.706V363.546C220.629 362.826 220.767 362.19 221.043 361.638C221.319 361.074 221.709 360.642 222.213 360.342C222.717 360.03 223.293 359.874 223.941 359.874H225.273C225.681 359.874 226.071 359.97 226.443 360.162C226.827 360.354 227.133 360.618 227.361 360.954V356.4H228.657V369H227.397V367.668C227.121 368.112 226.761 368.472 226.317 368.748C225.873 369.012 225.441 369.144 225.021 369.144H223.779ZM224.985 367.992C225.369 367.992 225.741 367.872 226.101 367.632C226.461 367.38 226.755 367.056 226.983 366.66C227.211 366.264 227.337 365.856 227.361 365.436V363.168C227.277 362.532 227.037 362.016 226.641 361.62C226.257 361.224 225.789 361.026 225.237 361.026H223.977C223.365 361.026 222.867 361.26 222.483 361.728C222.111 362.184 221.925 362.79 221.925 363.546V365.706C221.925 366.378 222.099 366.93 222.447 367.362C222.807 367.782 223.263 367.992 223.815 367.992H224.985ZM234.519 369.144C233.511 369.144 232.701 368.85 232.089 368.262C231.477 367.662 231.171 366.87 231.171 365.886V363.312C231.171 362.28 231.477 361.452 232.089 360.828C232.701 360.192 233.511 359.874 234.519 359.874H235.995C236.955 359.874 237.729 360.18 238.317 360.792C238.905 361.404 239.199 362.214 239.199 363.222V364.806H232.467V365.886C232.467 366.51 232.653 367.02 233.025 367.416C233.409 367.8 233.907 367.992 234.519 367.992H235.887C236.487 367.992 236.973 367.83 237.345 367.506C237.717 367.17 237.903 366.726 237.903 366.174H239.163C239.163 367.062 238.863 367.782 238.263 368.334C237.663 368.874 236.871 369.144 235.887 369.144H234.519ZM237.903 363.69V363.222C237.903 362.562 237.729 362.034 237.381 361.638C237.033 361.23 236.571 361.026 235.995 361.026H234.519C233.907 361.026 233.409 361.236 233.025 361.656C232.653 362.076 232.467 362.628 232.467 363.312V363.69H237.903Z" fill="#4C545C"/>
<path d="M134.675 425H113.325C112.593 425 112 425.593 112 426.325V447.676C112 448.407 112.593 449 113.325 449H124.82V439.706H121.692V436.084H124.82V433.413C124.82 430.313 126.713 428.625 129.479 428.625C130.804 428.625 131.942 428.724 132.274 428.768V432.008L130.356 432.009C128.852 432.009 128.561 432.724 128.561 433.772V436.085H132.148L131.681 439.707H128.561V449H134.677C135.407 449 136 448.407 136 447.675V426.325C136 425.593 135.407 425 134.675 425Z" fill="#4C545C"/>
<path fill-rule="evenodd" clip-rule="evenodd" d="M252 425C248.741 425 248.333 425.014 247.053 425.072C242.695 425.272 240.273 427.69 240.073 432.052C240.014 433.333 240 433.741 240 437C240 440.259 240.014 440.668 240.072 441.948C240.272 446.306 242.69 448.728 247.052 448.928C248.333 448.986 248.741 449 252 449C255.259 449 255.668 448.986 256.948 448.928C261.302 448.728 263.73 446.31 263.927 441.948C263.986 440.668 264 440.259 264 437C264 433.741 263.986 433.333 263.928 432.053C263.732 427.699 261.311 425.273 256.949 425.073C255.668 425.014 255.259 425 252 425ZM252 427.163C255.204 427.163 255.584 427.175 256.85 427.233C260.102 427.381 261.621 428.924 261.769 432.152C261.827 433.417 261.838 433.797 261.838 437.001C261.838 440.206 261.826 440.585 261.769 441.85C261.62 445.075 260.105 446.621 256.85 446.769C255.584 446.827 255.206 446.839 252 446.839C248.796 446.839 248.416 446.827 247.151 446.769C243.891 446.62 242.38 445.07 242.232 441.849C242.174 440.584 242.162 440.205 242.162 437C242.162 433.796 242.175 433.417 242.232 432.151C242.381 428.924 243.896 427.38 247.151 427.232C248.417 427.175 248.796 427.163 252 427.163ZM245.838 437C245.838 433.597 248.597 430.838 252 430.838C255.403 430.838 258.162 433.597 258.162 437C258.162 440.404 255.403 443.163 252 443.163C248.597 443.163 245.838 440.403 245.838 437ZM252 441C249.791 441 248 439.21 248 437C248 434.791 249.791 433 252 433C254.209 433 256 434.791 256 437C256 439.21 254.209 441 252 441ZM256.965 430.595C256.965 429.8 257.61 429.155 258.406 429.155C259.201 429.155 259.845 429.8 259.845 430.595C259.845 431.39 259.201 432.035 258.406 432.035C257.61 432.035 256.965 431.39 256.965 430.595Z" fill="#4C545C"/>
<path d="M200 429.557C199.117 429.949 198.168 430.213 197.172 430.332C198.189 429.723 198.97 428.758 199.337 427.608C198.386 428.172 197.332 428.582 196.21 428.803C195.313 427.846 194.032 427.248 192.616 427.248C189.437 427.248 187.101 430.214 187.819 433.293C183.728 433.088 180.1 431.128 177.671 428.149C176.381 430.362 177.002 433.257 179.194 434.723C178.388 434.697 177.628 434.476 176.965 434.107C176.911 436.388 178.546 438.522 180.914 438.997C180.221 439.185 179.462 439.229 178.69 439.081C179.316 441.037 181.134 442.46 183.29 442.5C181.22 444.123 178.612 444.848 176 444.54C178.179 445.937 180.768 446.752 183.548 446.752C192.69 446.752 197.855 439.031 197.543 432.106C198.505 431.411 199.34 430.544 200 429.557Z" fill="#4C545C"/>
</svg>
