<svg width="1440" height="150" viewBox="0 0 1440 150" fill="none" xmlns="http://www.w3.org/2000/svg">
<rect opacity="0.100237" width="1440" height="150" fill="#9EABB2"/>
<path fill-rule="evenodd" clip-rule="evenodd" d="M192.5 44C207.688 44 220 56.3122 220 71.5C220 86.6878 207.688 99 192.5 99C177.312 99 165 86.6878 165 71.5C165 56.3122 177.312 44 192.5 44ZM192.5 49C180.074 49 170 59.0736 170 71.5C170 83.9264 180.074 94 192.5 94C204.926 94 215 83.9264 215 71.5C215 59.0736 204.926 49 192.5 49ZM204.379 79.8439C205.356 80.8202 205.356 82.4031 204.379 83.3794C197.819 89.9402 187.181 89.9402 180.621 83.3794C174.06 76.8186 174.06 66.1814 180.621 59.6206C187.181 53.0598 197.819 53.0598 204.379 59.6206C205.356 60.5969 205.356 62.1798 204.379 63.1561C203.403 64.1325 201.82 64.1325 200.844 63.1561C196.236 58.548 188.764 58.548 184.156 63.1561C179.548 67.7643 179.548 75.2357 184.156 79.8439C188.764 84.452 196.236 84.452 200.844 79.8439C201.82 78.8675 203.403 78.8675 204.379 79.8439Z" fill="#26BBA4"/>
<path d="M356.44 48.4H364.72V49.588H357.772V54.196H364.054V55.384H357.772V61H356.44V48.4ZM372.756 57.508H367.23L365.934 61H364.566L369.408 48.4H370.02C370.416 48.4 370.704 48.64 370.884 49.12L373.656 56.392H373.674V56.428L375.42 61H374.052L372.756 57.508ZM367.644 56.392H372.342L370.002 50.128H369.984L367.644 56.392ZM386.751 61.576L385.365 60.208C384.585 60.832 383.685 61.144 382.665 61.144H380.793C379.965 61.144 379.233 60.958 378.597 60.586C377.973 60.214 377.487 59.686 377.139 59.002C376.803 58.318 376.635 57.526 376.635 56.626V52.774C376.635 51.874 376.809 51.088 377.157 50.416C377.517 49.732 378.021 49.204 378.669 48.832C379.317 48.448 380.055 48.256 380.883 48.256H382.791C383.619 48.256 384.351 48.442 384.987 48.814C385.623 49.186 386.115 49.714 386.463 50.398C386.823 51.082 387.003 51.874 387.003 52.774V56.59C387.003 57.634 386.727 58.546 386.175 59.326L387.579 60.712L386.751 61.576ZM382.629 59.956C383.349 59.956 383.967 59.746 384.483 59.326L382.647 57.526L383.475 56.662L385.239 58.408C385.527 57.868 385.671 57.262 385.671 56.59V52.774C385.671 51.778 385.401 50.974 384.861 50.362C384.333 49.75 383.631 49.444 382.755 49.444H380.919C380.043 49.444 379.329 49.75 378.777 50.362C378.237 50.974 377.967 51.778 377.967 52.774V56.626C377.967 57.634 378.225 58.444 378.741 59.056C379.269 59.656 379.965 59.956 380.829 59.956H382.629ZM392.218 61.144C391.306 61.144 390.574 60.886 390.022 60.37C389.47 59.854 389.194 59.176 389.194 58.336H390.454C390.454 58.84 390.616 59.248 390.94 59.56C391.264 59.872 391.69 60.028 392.218 60.028H393.784C394.3 60.028 394.72 59.926 395.044 59.722C395.368 59.506 395.53 59.23 395.53 58.894V58.282C395.53 58.054 395.44 57.856 395.26 57.688C395.08 57.508 394.846 57.388 394.558 57.328L391.444 56.788C390.82 56.68 390.316 56.446 389.932 56.086C389.56 55.714 389.374 55.282 389.374 54.79V54.196C389.374 53.5 389.638 52.942 390.166 52.522C390.694 52.09 391.39 51.874 392.254 51.874H393.802C394.642 51.874 395.32 52.114 395.836 52.594C396.352 53.062 396.61 53.686 396.61 54.466H395.35C395.338 54.022 395.188 53.668 394.9 53.404C394.624 53.128 394.258 52.99 393.802 52.99H392.254C391.774 52.99 391.39 53.104 391.102 53.332C390.814 53.548 390.67 53.836 390.67 54.196V54.718C390.67 54.946 390.766 55.15 390.958 55.33C391.162 55.51 391.42 55.624 391.732 55.672L394.828 56.212C395.428 56.32 395.908 56.554 396.268 56.914C396.64 57.274 396.826 57.706 396.826 58.21V58.93C396.826 59.59 396.544 60.124 395.98 60.532C395.428 60.94 394.696 61.144 393.784 61.144H392.218Z" fill="#4C545C"/>
<path d="M360.166 103.144C359.362 103.144 358.648 102.952 358.024 102.568C357.412 102.184 356.932 101.65 356.584 100.966C356.248 100.27 356.08 99.472 356.08 98.572V94.828C356.08 93.928 356.248 93.13 356.584 92.434C356.932 91.738 357.418 91.204 358.042 90.832C358.678 90.448 359.41 90.256 360.238 90.256H362.146C362.926 90.256 363.61 90.424 364.198 90.76C364.798 91.096 365.26 91.57 365.584 92.182C365.92 92.794 366.088 93.496 366.088 94.288H364.792C364.792 93.436 364.546 92.752 364.054 92.236C363.574 91.708 362.938 91.444 362.146 91.444H360.238C359.386 91.444 358.702 91.756 358.186 92.38C357.67 92.992 357.412 93.808 357.412 94.828V98.572C357.412 99.592 357.664 100.414 358.168 101.038C358.672 101.65 359.338 101.956 360.166 101.956H362.11C362.926 101.956 363.58 101.668 364.072 101.092C364.576 100.516 364.828 99.76 364.828 98.824H366.124C366.124 99.676 365.956 100.432 365.62 101.092C365.284 101.74 364.81 102.244 364.198 102.604C363.598 102.964 362.902 103.144 362.11 103.144H360.166ZM371.374 103.144C370.366 103.144 369.556 102.832 368.944 102.208C368.332 101.584 368.026 100.762 368.026 99.742V97.276C368.026 96.256 368.332 95.434 368.944 94.81C369.568 94.186 370.39 93.874 371.41 93.874H372.886C373.906 93.874 374.722 94.186 375.334 94.81C375.958 95.434 376.27 96.256 376.27 97.276V99.742C376.27 100.762 375.958 101.584 375.334 102.208C374.71 102.832 373.882 103.144 372.85 103.144H371.374ZM372.85 101.992C373.498 101.992 374.014 101.788 374.398 101.38C374.782 100.96 374.974 100.414 374.974 99.742V97.276C374.974 96.604 374.782 96.064 374.398 95.656C374.014 95.236 373.51 95.026 372.886 95.026H371.41C370.786 95.026 370.282 95.236 369.898 95.656C369.514 96.064 369.322 96.604 369.322 97.276V99.742C369.322 100.426 369.508 100.972 369.88 101.38C370.252 101.788 370.75 101.992 371.374 101.992H372.85ZM378.786 94.018H380.046V95.35C380.322 94.918 380.682 94.564 381.126 94.288C381.57 94.012 382.014 93.874 382.458 93.874H383.682C384.51 93.874 385.176 94.156 385.68 94.72C386.196 95.284 386.454 96.022 386.454 96.934V103H385.158V96.898C385.158 96.346 385.02 95.896 384.744 95.548C384.468 95.2 384.102 95.026 383.646 95.026H382.494C381.93 95.026 381.414 95.248 380.946 95.692C380.49 96.136 380.202 96.706 380.082 97.402V103H378.786V94.018ZM392.75 103C391.802 103 391.118 102.796 390.698 102.388C390.29 101.98 390.086 101.308 390.086 100.372V95.17H388.502V94.018H390.086V91.3H391.382V94.018H393.722V95.17H391.382V100.372C391.382 100.9 391.484 101.278 391.688 101.506C391.904 101.734 392.258 101.848 392.75 101.848H393.722V103H392.75ZM398.611 103.144C397.735 103.144 397.033 102.916 396.505 102.46C395.989 102.004 395.731 101.392 395.731 100.624V100.048C395.731 99.292 396.001 98.686 396.541 98.23C397.081 97.774 397.795 97.546 398.683 97.546H399.835C400.231 97.546 400.639 97.606 401.059 97.726C401.479 97.846 401.839 98.008 402.139 98.212V96.718C402.139 96.214 401.983 95.806 401.671 95.494C401.359 95.17 400.945 95.008 400.429 95.008H398.989C398.473 95.008 398.059 95.128 397.747 95.368C397.435 95.608 397.279 95.926 397.279 96.322H395.983C395.983 95.59 396.259 95.002 396.811 94.558C397.363 94.102 398.089 93.874 398.989 93.874H400.429C401.317 93.874 402.031 94.138 402.571 94.666C403.123 95.182 403.399 95.866 403.399 96.718V103H402.175V101.74C401.899 102.172 401.533 102.514 401.077 102.766C400.633 103.018 400.171 103.144 399.691 103.144H398.611ZM399.727 102.01C400.291 102.01 400.795 101.836 401.239 101.488C401.683 101.14 401.983 100.678 402.139 100.102V99.436C401.899 99.208 401.563 99.028 401.131 98.896C400.711 98.752 400.279 98.68 399.835 98.68H398.683C398.191 98.68 397.789 98.806 397.477 99.058C397.177 99.31 397.027 99.64 397.027 100.048V100.624C397.027 101.044 397.171 101.38 397.459 101.632C397.747 101.884 398.131 102.01 398.611 102.01H399.727ZM409.072 103.144C408.088 103.144 407.296 102.85 406.696 102.262C406.096 101.662 405.796 100.87 405.796 99.886V97.312C405.796 96.28 406.096 95.452 406.696 94.828C407.296 94.192 408.082 93.874 409.054 93.874H410.53C411.454 93.874 412.198 94.132 412.762 94.648C413.326 95.164 413.608 95.842 413.608 96.682H412.348C412.348 96.19 412.18 95.794 411.844 95.494C411.52 95.182 411.082 95.026 410.53 95.026H409.054C408.466 95.026 407.992 95.236 407.632 95.656C407.272 96.076 407.092 96.628 407.092 97.312V99.886C407.092 100.522 407.272 101.032 407.632 101.416C408.004 101.8 408.484 101.992 409.072 101.992H410.548C411.112 101.992 411.562 101.794 411.898 101.398C412.246 101.002 412.42 100.474 412.42 99.814H413.68C413.68 100.81 413.392 101.614 412.816 102.226C412.24 102.838 411.484 103.144 410.548 103.144H409.072ZM419.399 103C418.451 103 417.767 102.796 417.347 102.388C416.939 101.98 416.735 101.308 416.735 100.372V95.17H415.151V94.018H416.735V91.3H418.031V94.018H420.371V95.17H418.031V100.372C418.031 100.9 418.133 101.278 418.337 101.506C418.553 101.734 418.907 101.848 419.399 101.848H420.371V103H419.399ZM431.578 103.144C430.81 103.144 430.132 102.976 429.544 102.64C428.956 102.292 428.5 101.806 428.176 101.182C427.852 100.546 427.69 99.82 427.69 99.004V90.4H429.022V99.04C429.022 99.916 429.256 100.624 429.724 101.164C430.192 101.692 430.81 101.956 431.578 101.956H433.522C434.29 101.956 434.908 101.692 435.376 101.164C435.844 100.624 436.078 99.916 436.078 99.04V90.4H437.41V99.004C437.41 99.82 437.248 100.546 436.924 101.182C436.6 101.806 436.144 102.292 435.556 102.64C434.968 102.976 434.29 103.144 433.522 103.144H431.578ZM442.844 103.144C441.932 103.144 441.2 102.886 440.648 102.37C440.096 101.854 439.82 101.176 439.82 100.336H441.08C441.08 100.84 441.242 101.248 441.566 101.56C441.89 101.872 442.316 102.028 442.844 102.028H444.41C444.926 102.028 445.346 101.926 445.67 101.722C445.994 101.506 446.156 101.23 446.156 100.894V100.282C446.156 100.054 446.066 99.856 445.886 99.688C445.706 99.508 445.472 99.388 445.184 99.328L442.07 98.788C441.446 98.68 440.942 98.446 440.558 98.086C440.186 97.714 440 97.282 440 96.79V96.196C440 95.5 440.264 94.942 440.792 94.522C441.32 94.09 442.016 93.874 442.88 93.874H444.428C445.268 93.874 445.946 94.114 446.462 94.594C446.978 95.062 447.236 95.686 447.236 96.466H445.976C445.964 96.022 445.814 95.668 445.526 95.404C445.25 95.128 444.884 94.99 444.428 94.99H442.88C442.4 94.99 442.016 95.104 441.728 95.332C441.44 95.548 441.296 95.836 441.296 96.196V96.718C441.296 96.946 441.392 97.15 441.584 97.33C441.788 97.51 442.046 97.624 442.358 97.672L445.454 98.212C446.054 98.32 446.534 98.554 446.894 98.914C447.266 99.274 447.452 99.706 447.452 100.21V100.93C447.452 101.59 447.17 102.124 446.606 102.532C446.054 102.94 445.322 103.144 444.41 103.144H442.844Z" fill="#4C545C"/>
<path d="M546.44 48.4H552.542C553.478 48.4 554.228 48.664 554.792 49.192C555.368 49.72 555.656 50.416 555.656 51.28V53.134C555.656 54.058 555.35 54.808 554.738 55.384C554.126 55.948 553.322 56.23 552.326 56.23H547.772V61H546.44V48.4ZM552.29 55.042C552.902 55.042 553.394 54.868 553.766 54.52C554.138 54.16 554.324 53.686 554.324 53.098V51.244C554.324 50.752 554.156 50.356 553.82 50.056C553.496 49.744 553.058 49.588 552.506 49.588H547.772V55.042H552.29ZM557.735 52.018H558.995V53.404C559.235 52.984 559.595 52.642 560.075 52.378C560.567 52.114 561.077 51.982 561.605 51.982H562.397V53.152H561.605C560.837 53.152 560.213 53.398 559.733 53.89C559.265 54.37 559.031 55.012 559.031 55.816V61H557.735V52.018ZM565.241 50.668C564.953 50.668 564.719 50.578 564.539 50.398C564.359 50.218 564.269 49.984 564.269 49.696C564.269 49.408 564.359 49.174 564.539 48.994C564.719 48.814 564.953 48.724 565.241 48.724C565.529 48.724 565.763 48.814 565.943 48.994C566.123 49.174 566.213 49.408 566.213 49.696C566.213 49.984 566.123 50.218 565.943 50.398C565.763 50.578 565.529 50.668 565.241 50.668ZM564.593 52.018H565.889V61H564.593V52.018ZM572.194 61C571.69 61 571.324 60.694 571.096 60.082L568 52.018H569.368L572.14 59.578H572.158L574.93 52.018H576.298L572.806 61H572.194ZM580.367 61.144C579.491 61.144 578.789 60.916 578.261 60.46C577.745 60.004 577.487 59.392 577.487 58.624V58.048C577.487 57.292 577.757 56.686 578.297 56.23C578.837 55.774 579.551 55.546 580.439 55.546H581.591C581.987 55.546 582.395 55.606 582.815 55.726C583.235 55.846 583.595 56.008 583.895 56.212V54.718C583.895 54.214 583.739 53.806 583.427 53.494C583.115 53.17 582.701 53.008 582.185 53.008H580.745C580.229 53.008 579.815 53.128 579.503 53.368C579.191 53.608 579.035 53.926 579.035 54.322H577.739C577.739 53.59 578.015 53.002 578.567 52.558C579.119 52.102 579.845 51.874 580.745 51.874H582.185C583.073 51.874 583.787 52.138 584.327 52.666C584.879 53.182 585.155 53.866 585.155 54.718V61H583.931V59.74C583.655 60.172 583.289 60.514 582.833 60.766C582.389 61.018 581.927 61.144 581.447 61.144H580.367ZM581.483 60.01C582.047 60.01 582.551 59.836 582.995 59.488C583.439 59.14 583.739 58.678 583.895 58.102V57.436C583.655 57.208 583.319 57.028 582.887 56.896C582.467 56.752 582.035 56.68 581.591 56.68H580.439C579.947 56.68 579.545 56.806 579.233 57.058C578.933 57.31 578.783 57.64 578.783 58.048V58.624C578.783 59.044 578.927 59.38 579.215 59.632C579.503 59.884 579.887 60.01 580.367 60.01H581.483ZM590.828 61.144C589.844 61.144 589.052 60.85 588.452 60.262C587.852 59.662 587.552 58.87 587.552 57.886V55.312C587.552 54.28 587.852 53.452 588.452 52.828C589.052 52.192 589.838 51.874 590.81 51.874H592.286C593.21 51.874 593.954 52.132 594.518 52.648C595.082 53.164 595.364 53.842 595.364 54.682H594.104C594.104 54.19 593.936 53.794 593.6 53.494C593.276 53.182 592.838 53.026 592.286 53.026H590.81C590.222 53.026 589.748 53.236 589.388 53.656C589.028 54.076 588.848 54.628 588.848 55.312V57.886C588.848 58.522 589.028 59.032 589.388 59.416C589.76 59.8 590.24 59.992 590.828 59.992H592.304C592.868 59.992 593.318 59.794 593.654 59.398C594.002 59.002 594.176 58.474 594.176 57.814H595.436C595.436 58.81 595.148 59.614 594.572 60.226C593.996 60.838 593.24 61.144 592.304 61.144H590.828ZM600.596 64.654C599.804 64.654 599.15 64.438 598.634 64.006C598.118 63.586 597.83 63.028 597.77 62.332H599.066C599.114 62.692 599.276 62.98 599.552 63.196C599.84 63.424 600.188 63.538 600.596 63.538H602C602.624 63.538 603.104 63.328 603.44 62.908C603.788 62.5 603.962 61.924 603.962 61.18V59.524C603.674 59.956 603.308 60.31 602.864 60.586C602.432 60.862 602 61 601.568 61H600.416C599.576 61 598.892 60.718 598.364 60.154C597.848 59.59 597.59 58.852 597.59 57.94V52.018H598.886V57.976C598.886 58.54 599.024 58.996 599.3 59.344C599.588 59.68 599.96 59.848 600.416 59.848H601.532C602.084 59.848 602.594 59.626 603.062 59.182C603.53 58.738 603.83 58.18 603.962 57.508V52.018H605.258V61.18C605.258 62.272 604.97 63.124 604.394 63.736C603.818 64.348 603.02 64.654 602 64.654H600.596ZM613.016 48.4H619.118C620.054 48.4 620.804 48.664 621.368 49.192C621.944 49.72 622.232 50.416 622.232 51.28V53.134C622.232 54.058 621.926 54.808 621.314 55.384C620.702 55.948 619.898 56.23 618.902 56.23H614.348V61H613.016V48.4ZM618.866 55.042C619.478 55.042 619.97 54.868 620.342 54.52C620.714 54.16 620.9 53.686 620.9 53.098V51.244C620.9 50.752 620.732 50.356 620.396 50.056C620.072 49.744 619.634 49.588 619.082 49.588H614.348V55.042H618.866ZM627.194 61.144C626.186 61.144 625.376 60.832 624.764 60.208C624.152 59.584 623.846 58.762 623.846 57.742V55.276C623.846 54.256 624.152 53.434 624.764 52.81C625.388 52.186 626.21 51.874 627.23 51.874H628.706C629.726 51.874 630.542 52.186 631.154 52.81C631.778 53.434 632.09 54.256 632.09 55.276V57.742C632.09 58.762 631.778 59.584 631.154 60.208C630.53 60.832 629.702 61.144 628.67 61.144H627.194ZM628.67 59.992C629.318 59.992 629.834 59.788 630.218 59.38C630.602 58.96 630.794 58.414 630.794 57.742V55.276C630.794 54.604 630.602 54.064 630.218 53.656C629.834 53.236 629.33 53.026 628.706 53.026H627.23C626.606 53.026 626.102 53.236 625.718 53.656C625.334 54.064 625.142 54.604 625.142 55.276V57.742C625.142 58.426 625.328 58.972 625.7 59.38C626.072 59.788 626.57 59.992 627.194 59.992H628.67ZM637.091 61C636.203 61 635.567 60.814 635.183 60.442C634.799 60.058 634.607 59.428 634.607 58.552V48.4H635.903V58.552C635.903 59.008 635.993 59.338 636.173 59.542C636.365 59.746 636.671 59.848 637.091 59.848H637.703V61H637.091ZM640.53 50.668C640.242 50.668 640.008 50.578 639.828 50.398C639.648 50.218 639.558 49.984 639.558 49.696C639.558 49.408 639.648 49.174 639.828 48.994C640.008 48.814 640.242 48.724 640.53 48.724C640.818 48.724 641.052 48.814 641.232 48.994C641.412 49.174 641.502 49.408 641.502 49.696C641.502 49.984 641.412 50.218 641.232 50.398C641.052 50.578 640.818 50.668 640.53 50.668ZM639.882 52.018H641.178V61H639.882V52.018ZM647.285 61.144C646.301 61.144 645.509 60.85 644.909 60.262C644.309 59.662 644.009 58.87 644.009 57.886V55.312C644.009 54.28 644.309 53.452 644.909 52.828C645.509 52.192 646.295 51.874 647.267 51.874H648.743C649.667 51.874 650.411 52.132 650.975 52.648C651.539 53.164 651.821 53.842 651.821 54.682H650.561C650.561 54.19 650.393 53.794 650.057 53.494C649.733 53.182 649.295 53.026 648.743 53.026H647.267C646.679 53.026 646.205 53.236 645.845 53.656C645.485 54.076 645.305 54.628 645.305 55.312V57.886C645.305 58.522 645.485 59.032 645.845 59.416C646.217 59.8 646.697 59.992 647.285 59.992H648.761C649.325 59.992 649.775 59.794 650.111 59.398C650.459 59.002 650.633 58.474 650.633 57.814H651.893C651.893 58.81 651.605 59.614 651.029 60.226C650.453 60.838 649.697 61.144 648.761 61.144H647.285ZM657.052 64.654C656.26 64.654 655.606 64.438 655.09 64.006C654.574 63.586 654.286 63.028 654.226 62.332H655.522C655.57 62.692 655.732 62.98 656.008 63.196C656.296 63.424 656.644 63.538 657.052 63.538H658.456C659.08 63.538 659.56 63.328 659.896 62.908C660.244 62.5 660.418 61.924 660.418 61.18V59.524C660.13 59.956 659.764 60.31 659.32 60.586C658.888 60.862 658.456 61 658.024 61H656.872C656.032 61 655.348 60.718 654.82 60.154C654.304 59.59 654.046 58.852 654.046 57.94V52.018H655.342V57.976C655.342 58.54 655.48 58.996 655.756 59.344C656.044 59.68 656.416 59.848 656.872 59.848H657.988C658.54 59.848 659.05 59.626 659.518 59.182C659.986 58.738 660.286 58.18 660.418 57.508V52.018H661.714V61.18C661.714 62.272 661.426 63.124 660.85 63.736C660.274 64.348 659.476 64.654 658.456 64.654H657.052Z" fill="#4C545C"/>
<path d="M546.44 90.4H552.542C553.478 90.4 554.228 90.664 554.792 91.192C555.368 91.72 555.656 92.416 555.656 93.28V95.134C555.656 96.058 555.35 96.808 554.738 97.384C554.126 97.948 553.322 98.23 552.326 98.23H547.772V103H546.44V90.4ZM552.29 97.042C552.902 97.042 553.394 96.868 553.766 96.52C554.138 96.16 554.324 95.686 554.324 95.098V93.244C554.324 92.752 554.156 92.356 553.82 92.056C553.496 91.744 553.058 91.588 552.506 91.588H547.772V97.042H552.29ZM557.735 94.018H558.995V95.404C559.235 94.984 559.595 94.642 560.075 94.378C560.567 94.114 561.077 93.982 561.605 93.982H562.397V95.152H561.605C560.837 95.152 560.213 95.398 559.733 95.89C559.265 96.37 559.031 97.012 559.031 97.816V103H557.735V94.018ZM566.976 103.144C565.968 103.144 565.158 102.85 564.546 102.262C563.934 101.662 563.628 100.87 563.628 99.886V97.312C563.628 96.28 563.934 95.452 564.546 94.828C565.158 94.192 565.968 93.874 566.976 93.874H568.452C569.412 93.874 570.186 94.18 570.774 94.792C571.362 95.404 571.656 96.214 571.656 97.222V98.806H564.924V99.886C564.924 100.51 565.11 101.02 565.482 101.416C565.866 101.8 566.364 101.992 566.976 101.992H568.344C568.944 101.992 569.43 101.83 569.802 101.506C570.174 101.17 570.36 100.726 570.36 100.174H571.62C571.62 101.062 571.32 101.782 570.72 102.334C570.12 102.874 569.328 103.144 568.344 103.144H566.976ZM570.36 97.69V97.222C570.36 96.562 570.186 96.034 569.838 95.638C569.49 95.23 569.028 95.026 568.452 95.026H566.976C566.364 95.026 565.866 95.236 565.482 95.656C565.11 96.076 564.924 96.628 564.924 97.312V97.69H570.36ZM576.61 103.144C575.698 103.144 574.966 102.886 574.414 102.37C573.862 101.854 573.586 101.176 573.586 100.336H574.846C574.846 100.84 575.008 101.248 575.332 101.56C575.656 101.872 576.082 102.028 576.61 102.028H578.176C578.692 102.028 579.112 101.926 579.436 101.722C579.76 101.506 579.922 101.23 579.922 100.894V100.282C579.922 100.054 579.832 99.856 579.652 99.688C579.472 99.508 579.238 99.388 578.95 99.328L575.836 98.788C575.212 98.68 574.708 98.446 574.324 98.086C573.952 97.714 573.766 97.282 573.766 96.79V96.196C573.766 95.5 574.03 94.942 574.558 94.522C575.086 94.09 575.782 93.874 576.646 93.874H578.194C579.034 93.874 579.712 94.114 580.228 94.594C580.744 95.062 581.002 95.686 581.002 96.466H579.742C579.73 96.022 579.58 95.668 579.292 95.404C579.016 95.128 578.65 94.99 578.194 94.99H576.646C576.166 94.99 575.782 95.104 575.494 95.332C575.206 95.548 575.062 95.836 575.062 96.196V96.718C575.062 96.946 575.158 97.15 575.35 97.33C575.554 97.51 575.812 97.624 576.124 97.672L579.22 98.212C579.82 98.32 580.3 98.554 580.66 98.914C581.032 99.274 581.218 99.706 581.218 100.21V100.93C581.218 101.59 580.936 102.124 580.372 102.532C579.82 102.94 579.088 103.144 578.176 103.144H576.61ZM586.097 103.144C585.185 103.144 584.453 102.886 583.901 102.37C583.349 101.854 583.073 101.176 583.073 100.336H584.333C584.333 100.84 584.495 101.248 584.819 101.56C585.143 101.872 585.569 102.028 586.097 102.028H587.663C588.179 102.028 588.599 101.926 588.923 101.722C589.247 101.506 589.409 101.23 589.409 100.894V100.282C589.409 100.054 589.319 99.856 589.139 99.688C588.959 99.508 588.725 99.388 588.437 99.328L585.323 98.788C584.699 98.68 584.195 98.446 583.811 98.086C583.439 97.714 583.253 97.282 583.253 96.79V96.196C583.253 95.5 583.517 94.942 584.045 94.522C584.573 94.09 585.269 93.874 586.133 93.874H587.681C588.521 93.874 589.199 94.114 589.715 94.594C590.231 95.062 590.489 95.686 590.489 96.466H589.229C589.217 96.022 589.067 95.668 588.779 95.404C588.503 95.128 588.137 94.99 587.681 94.99H586.133C585.653 94.99 585.269 95.104 584.981 95.332C584.693 95.548 584.549 95.836 584.549 96.196V96.718C584.549 96.946 584.645 97.15 584.837 97.33C585.041 97.51 585.299 97.624 585.611 97.672L588.707 98.212C589.307 98.32 589.787 98.554 590.147 98.914C590.519 99.274 590.705 99.706 590.705 100.21V100.93C590.705 101.59 590.423 102.124 589.859 102.532C589.307 102.94 588.575 103.144 587.663 103.144H586.097ZM605.686 103L600.826 96.97L599.242 98.644V103H597.91V90.4H599.242V96.988L605.362 90.4H607.018L601.744 95.998L607.342 103H605.686ZM610.283 92.668C609.995 92.668 609.761 92.578 609.581 92.398C609.401 92.218 609.311 91.984 609.311 91.696C609.311 91.408 609.401 91.174 609.581 90.994C609.761 90.814 609.995 90.724 610.283 90.724C610.571 90.724 610.805 90.814 610.985 90.994C611.165 91.174 611.255 91.408 611.255 91.696C611.255 91.984 611.165 92.218 610.985 92.398C610.805 92.578 610.571 92.668 610.283 92.668ZM609.635 94.018H610.931V103H609.635V94.018ZM617.65 103C616.702 103 616.018 102.796 615.598 102.388C615.19 101.98 614.986 101.308 614.986 100.372V95.17H613.402V94.018H614.986V91.3H616.282V94.018H618.622V95.17H616.282V100.372C616.282 100.9 616.384 101.278 616.588 101.506C616.804 101.734 617.158 101.848 617.65 101.848H618.622V103H617.65Z" fill="#4C545C"/>
<path d="M736.62 48.4H737.952V61H736.62V48.4ZM741.073 52.018H742.333V53.35C742.609 52.918 742.969 52.564 743.413 52.288C743.857 52.012 744.301 51.874 744.745 51.874H745.969C746.797 51.874 747.463 52.156 747.967 52.72C748.483 53.284 748.741 54.022 748.741 54.934V61H747.445V54.898C747.445 54.346 747.307 53.896 747.031 53.548C746.755 53.2 746.389 53.026 745.933 53.026H744.781C744.217 53.026 743.701 53.248 743.233 53.692C742.777 54.136 742.489 54.706 742.369 55.402V61H741.073V52.018ZM754.065 61.144C753.153 61.144 752.421 60.886 751.869 60.37C751.317 59.854 751.041 59.176 751.041 58.336H752.301C752.301 58.84 752.463 59.248 752.787 59.56C753.111 59.872 753.537 60.028 754.065 60.028H755.631C756.147 60.028 756.567 59.926 756.891 59.722C757.215 59.506 757.377 59.23 757.377 58.894V58.282C757.377 58.054 757.287 57.856 757.107 57.688C756.927 57.508 756.693 57.388 756.405 57.328L753.291 56.788C752.667 56.68 752.163 56.446 751.779 56.086C751.407 55.714 751.221 55.282 751.221 54.79V54.196C751.221 53.5 751.485 52.942 752.013 52.522C752.541 52.09 753.237 51.874 754.101 51.874H755.649C756.489 51.874 757.167 52.114 757.683 52.594C758.199 53.062 758.457 53.686 758.457 54.466H757.197C757.185 54.022 757.035 53.668 756.747 53.404C756.471 53.128 756.105 52.99 755.649 52.99H754.101C753.621 52.99 753.237 53.104 752.949 53.332C752.661 53.548 752.517 53.836 752.517 54.196V54.718C752.517 54.946 752.613 55.15 752.805 55.33C753.009 55.51 753.267 55.624 753.579 55.672L756.675 56.212C757.275 56.32 757.755 56.554 758.115 56.914C758.487 57.274 758.673 57.706 758.673 58.21V58.93C758.673 59.59 758.391 60.124 757.827 60.532C757.275 60.94 756.543 61.144 755.631 61.144H754.065ZM764.418 61C763.47 61 762.786 60.796 762.366 60.388C761.958 59.98 761.754 59.308 761.754 58.372V53.17H760.17V52.018H761.754V49.3H763.05V52.018H765.39V53.17H763.05V58.372C763.05 58.9 763.152 59.278 763.356 59.506C763.572 59.734 763.926 59.848 764.418 59.848H765.39V61H764.418ZM770.279 61.144C769.403 61.144 768.701 60.916 768.173 60.46C767.657 60.004 767.399 59.392 767.399 58.624V58.048C767.399 57.292 767.669 56.686 768.209 56.23C768.749 55.774 769.463 55.546 770.351 55.546H771.503C771.899 55.546 772.307 55.606 772.727 55.726C773.147 55.846 773.507 56.008 773.807 56.212V54.718C773.807 54.214 773.651 53.806 773.339 53.494C773.027 53.17 772.613 53.008 772.097 53.008H770.657C770.141 53.008 769.727 53.128 769.415 53.368C769.103 53.608 768.947 53.926 768.947 54.322H767.651C767.651 53.59 767.927 53.002 768.479 52.558C769.031 52.102 769.757 51.874 770.657 51.874H772.097C772.985 51.874 773.699 52.138 774.239 52.666C774.791 53.182 775.067 53.866 775.067 54.718V61H773.843V59.74C773.567 60.172 773.201 60.514 772.745 60.766C772.301 61.018 771.839 61.144 771.359 61.144H770.279ZM771.395 60.01C771.959 60.01 772.463 59.836 772.907 59.488C773.351 59.14 773.651 58.678 773.807 58.102V57.436C773.567 57.208 773.231 57.028 772.799 56.896C772.379 56.752 771.947 56.68 771.503 56.68H770.351C769.859 56.68 769.457 56.806 769.145 57.058C768.845 57.31 768.695 57.64 768.695 58.048V58.624C768.695 59.044 768.839 59.38 769.127 59.632C769.415 59.884 769.799 60.01 770.279 60.01H771.395ZM780.308 61C779.42 61 778.784 60.814 778.4 60.442C778.016 60.058 777.824 59.428 777.824 58.552V48.4H779.12V58.552C779.12 59.008 779.21 59.338 779.39 59.542C779.582 59.746 779.888 59.848 780.308 59.848H780.92V61H780.308ZM785.154 61C784.266 61 783.63 60.814 783.246 60.442C782.862 60.058 782.67 59.428 782.67 58.552V48.4H783.966V58.552C783.966 59.008 784.056 59.338 784.236 59.542C784.428 59.746 784.734 59.848 785.154 59.848H785.766V61H785.154ZM796.266 61.144C795.438 61.144 794.712 60.958 794.088 60.586C793.476 60.202 792.996 59.662 792.648 58.966C792.312 58.27 792.144 57.472 792.144 56.572V52.828C792.144 51.928 792.318 51.136 792.666 50.452C793.026 49.756 793.524 49.216 794.16 48.832C794.796 48.448 795.528 48.256 796.356 48.256H798.264C799.056 48.256 799.752 48.424 800.352 48.76C800.964 49.096 801.438 49.57 801.774 50.182C802.11 50.794 802.278 51.496 802.278 52.288H800.982C800.982 51.436 800.73 50.752 800.226 50.236C799.734 49.708 799.08 49.444 798.264 49.444H796.356C795.492 49.444 794.796 49.756 794.268 50.38C793.74 50.992 793.476 51.808 793.476 52.828V56.572C793.476 57.592 793.728 58.414 794.232 59.038C794.748 59.65 795.426 59.956 796.266 59.956H798.21C799.062 59.956 799.752 59.662 800.28 59.074C800.808 58.486 801.072 57.712 801.072 56.752V55.672H797.58V54.502H802.368V56.752C802.368 57.616 802.194 58.384 801.846 59.056C801.51 59.716 801.024 60.232 800.388 60.604C799.764 60.964 799.038 61.144 798.21 61.144H796.266ZM807.554 61.144C806.726 61.144 806.054 60.862 805.538 60.298C805.022 59.734 804.764 58.996 804.764 58.084V52.018H806.06V58.12C806.06 58.684 806.198 59.14 806.474 59.488C806.75 59.824 807.11 59.992 807.554 59.992H808.67C809.222 59.992 809.732 59.77 810.2 59.326C810.668 58.882 810.968 58.324 811.1 57.652V52.018H812.396V61H811.136V59.632C810.86 60.064 810.494 60.424 810.038 60.712C809.582 61 809.138 61.144 808.706 61.144H807.554ZM816.245 50.668C815.957 50.668 815.723 50.578 815.543 50.398C815.363 50.218 815.273 49.984 815.273 49.696C815.273 49.408 815.363 49.174 815.543 48.994C815.723 48.814 815.957 48.724 816.245 48.724C816.533 48.724 816.767 48.814 816.947 48.994C817.127 49.174 817.217 49.408 817.217 49.696C817.217 49.984 817.127 50.218 816.947 50.398C816.767 50.578 816.533 50.668 816.245 50.668ZM815.597 52.018H816.893V61H815.597V52.018ZM822.873 61.144C822.261 61.144 821.715 61 821.235 60.712C820.755 60.424 820.383 60.022 820.119 59.506C819.855 58.99 819.723 58.39 819.723 57.706V55.546C819.723 54.826 819.861 54.19 820.137 53.638C820.413 53.074 820.803 52.642 821.307 52.342C821.811 52.03 822.387 51.874 823.035 51.874H824.367C824.775 51.874 825.165 51.97 825.537 52.162C825.921 52.354 826.227 52.618 826.455 52.954V48.4H827.751V61H826.491V59.668C826.215 60.112 825.855 60.472 825.411 60.748C824.967 61.012 824.535 61.144 824.115 61.144H822.873ZM824.079 59.992C824.463 59.992 824.835 59.872 825.195 59.632C825.555 59.38 825.849 59.056 826.077 58.66C826.305 58.264 826.431 57.856 826.455 57.436V55.168C826.371 54.532 826.131 54.016 825.735 53.62C825.351 53.224 824.883 53.026 824.331 53.026H823.071C822.459 53.026 821.961 53.26 821.577 53.728C821.205 54.184 821.019 54.79 821.019 55.546V57.706C821.019 58.378 821.193 58.93 821.541 59.362C821.901 59.782 822.357 59.992 822.909 59.992H824.079ZM833.613 61.144C832.605 61.144 831.795 60.85 831.183 60.262C830.571 59.662 830.265 58.87 830.265 57.886V55.312C830.265 54.28 830.571 53.452 831.183 52.828C831.795 52.192 832.605 51.874 833.613 51.874H835.089C836.049 51.874 836.823 52.18 837.411 52.792C837.999 53.404 838.293 54.214 838.293 55.222V56.806H831.561V57.886C831.561 58.51 831.747 59.02 832.119 59.416C832.503 59.8 833.001 59.992 833.613 59.992H834.981C835.581 59.992 836.067 59.83 836.439 59.506C836.811 59.17 836.997 58.726 836.997 58.174H838.257C838.257 59.062 837.957 59.782 837.357 60.334C836.757 60.874 835.965 61.144 834.981 61.144H833.613ZM836.997 55.69V55.222C836.997 54.562 836.823 54.034 836.475 53.638C836.127 53.23 835.665 53.026 835.089 53.026H833.613C833.001 53.026 832.503 53.236 832.119 53.656C831.747 54.076 831.561 54.628 831.561 55.312V55.69H836.997Z" fill="#4C545C"/>
<path d="M1177.67 63H1156.33C1155.59 63 1155 63.593 1155 64.325V85.676C1155 86.407 1155.59 87 1156.33 87H1167.82V77.706H1164.69V74.084H1167.82V71.413C1167.82 68.313 1169.71 66.625 1172.48 66.625C1173.8 66.625 1174.94 66.724 1175.27 66.768V70.008L1173.36 70.009C1171.85 70.009 1171.56 70.724 1171.56 71.772V74.085H1175.15L1174.68 77.707H1171.56V87H1177.68C1178.41 87 1179 86.407 1179 85.675V64.325C1179 63.593 1178.41 63 1177.67 63Z" fill="#4C545C"/>
<path fill-rule="evenodd" clip-rule="evenodd" d="M1263 63C1259.74 63 1259.33 63.014 1258.05 63.072C1253.7 63.272 1251.27 65.69 1251.07 70.052C1251.01 71.333 1251 71.741 1251 75C1251 78.259 1251.01 78.668 1251.07 79.948C1251.27 84.306 1253.69 86.728 1258.05 86.928C1259.33 86.986 1259.74 87 1263 87C1266.26 87 1266.67 86.986 1267.95 86.928C1272.3 86.728 1274.73 84.31 1274.93 79.948C1274.99 78.668 1275 78.259 1275 75C1275 71.741 1274.99 71.333 1274.93 70.053C1274.73 65.699 1272.31 63.273 1267.95 63.073C1266.67 63.014 1266.26 63 1263 63ZM1263 65.163C1266.2 65.163 1266.58 65.175 1267.85 65.233C1271.1 65.381 1272.62 66.924 1272.77 70.152C1272.83 71.417 1272.84 71.797 1272.84 75.001C1272.84 78.206 1272.83 78.585 1272.77 79.85C1272.62 83.075 1271.1 84.621 1267.85 84.769C1266.58 84.827 1266.21 84.839 1263 84.839C1259.8 84.839 1259.42 84.827 1258.15 84.769C1254.89 84.62 1253.38 83.07 1253.23 79.849C1253.17 78.584 1253.16 78.205 1253.16 75C1253.16 71.796 1253.17 71.417 1253.23 70.151C1253.38 66.924 1254.9 65.38 1258.15 65.232C1259.42 65.175 1259.8 65.163 1263 65.163ZM1256.84 75C1256.84 71.597 1259.6 68.838 1263 68.838C1266.4 68.838 1269.16 71.597 1269.16 75C1269.16 78.404 1266.4 81.163 1263 81.163C1259.6 81.163 1256.84 78.403 1256.84 75ZM1263 79C1260.79 79 1259 77.21 1259 75C1259 72.791 1260.79 71 1263 71C1265.21 71 1267 72.791 1267 75C1267 77.21 1265.21 79 1263 79ZM1267.97 68.595C1267.97 67.8 1268.61 67.155 1269.41 67.155C1270.2 67.155 1270.85 67.8 1270.85 68.595C1270.85 69.39 1270.2 70.035 1269.41 70.035C1268.61 70.035 1267.97 69.39 1267.97 68.595Z" fill="#4C545C"/>
<path d="M1227 67.557C1226.12 67.949 1225.17 68.213 1224.17 68.332C1225.19 67.723 1225.97 66.758 1226.34 65.608C1225.39 66.172 1224.33 66.582 1223.21 66.803C1222.31 65.846 1221.03 65.248 1219.62 65.248C1216.44 65.248 1214.1 68.214 1214.82 71.293C1210.73 71.088 1207.1 69.128 1204.67 66.149C1203.38 68.362 1204 71.257 1206.19 72.723C1205.39 72.697 1204.63 72.476 1203.96 72.107C1203.91 74.388 1205.55 76.522 1207.91 76.997C1207.22 77.185 1206.46 77.229 1205.69 77.081C1206.32 79.037 1208.13 80.46 1210.29 80.5C1208.22 82.123 1205.61 82.848 1203 82.54C1205.18 83.937 1207.77 84.752 1210.55 84.752C1219.69 84.752 1224.85 77.031 1224.54 70.106C1225.5 69.411 1226.34 68.544 1227 67.557Z" fill="#4C545C"/>
</svg>
